<svg xmlns="http://www.w3.org/2000/svg" viewBox="0 0 720 120" role="img" aria-labelledby="title desc"><title id="title">Cozy Libram book and reading icon strip</title><desc id="desc">Antique-gold line icons for books, bookmark, heart, sparkle, feather and crown.</desc><g fill="none" stroke="#C99A63" stroke-width="2.4" stroke-linecap="round" stroke-linejoin="round"><path d="M20 24h52v72H20z M20 24l26 8 26-8 M20 96l26-8 26 8"/><path d="M112 25h58v72h-58z M112 25l18 8v64"/><path d="M208 32l42 10-8 16-42-10z M200 53l42 10-8 16-42-10z M192 74l42 10-8 16-42-10z"/><path d="M288 26h50v68l-25-15-25 15z"/><path d="M389 37 C389 24 410 20 418 34 C426 20 447 24 447 37 C447 57 418 76 418 76 S389 57 389 37z"/><path d="M507 26 l6 17 18 6-18 6-6 18-6-18-18-6 18-6z"/><path d="M590 28 C571 43 563 58 566 75 C575 83 588 86 600 83 C616 77 625 59 621 45 C614 54 604 58 596 52 C589 46 588 37 590 28z"/><path d="M668 26l8 16 18 2-13 12 4 18-17-9-17 9 4-18-13-12 18-2z"/></g></svg>