<svg xmlns="http://www.w3.org/2000/svg" viewBox="0 0 300 300" role="img" aria-labelledby="t d"><title id="t">Candlelight taper</title><desc id="d">A lit taper in a brass holder with a warm halo.</desc><path d="M72.4,99.8 L52.5,97.8" stroke="#c08a24" stroke-width="9" stroke-linecap="round" stroke-opacity=".75"/><path d="M82.5,69 L65.1,59" stroke="#c08a24" stroke-width="9" stroke-linecap="round" stroke-opacity=".75"/><path d="M104.2,44.9 L92.4,28.7" stroke="#c08a24" stroke-width="9" stroke-linecap="round" stroke-opacity=".75"/><path d="M133.8,31.7 L129.6,12.1" stroke="#c08a24" stroke-width="9" stroke-linecap="round" stroke-opacity=".75"/><path d="M166.2,31.7 L170.4,12.1" stroke="#c08a24" stroke-width="9" stroke-linecap="round" stroke-opacity=".75"/><path d="M195.8,44.9 L207.6,28.7" stroke="#c08a24" stroke-width="9" stroke-linecap="round" stroke-opacity=".75"/><path d="M217.5,69 L234.9,59" stroke="#c08a24" stroke-width="9" stroke-linecap="round" stroke-opacity=".75"/><path d="M227.6,99.8 L247.5,97.8" stroke="#c08a24" stroke-width="9" stroke-linecap="round" stroke-opacity=".75"/><rect x="119" y="120" width="62" height="112" rx="11.2" fill="#f3e2b3" stroke="#96690f" stroke-width="8" stroke-linejoin="round"/><path d="M150,120 L150,108.8" stroke="#96690f" stroke-width="4.8" stroke-linecap="round"/><path d="M0,0 C-32.4,-8.3 -29,-38.2 -4.1,-69.4 C1.7,-47.2 32.4,-36.1 27.3,-18.1 C23.9,-5.6 10.2,0 0,0Z" transform="translate(150,111)" fill="#e8a82c"/><path d="M0,0 C-16.5,-4.6 -14.8,-20.9 -2.1,-38.1 C0.9,-25.9 16.5,-19.8 13.9,-9.9 C12.2,-3 5.2,0 0,0Z" transform="translate(150,108.8)" fill="#fff0b8"/><path d="M92,236 C92,256 208,256 208,236 L196,246 L104,246Z" fill="#96690f"/><path d="M80,262 C120,248 180,248 220,262 L212,276 L88,276Z" fill="#c08a24" stroke="#96690f" stroke-width="6" stroke-linejoin="round"/></svg>
