<svg xmlns="http://www.w3.org/2000/svg" viewBox="0 0 160 700" role="img" aria-labelledby="t d"><title id="t">Light morning garden (themed example)</title><desc id="d">Bespoke art in the Asset pack style: rising sun, sage stem, ring blossoms, dew.</desc><circle cx="80" cy="110" r="20" fill="#c08a24" opacity=".85" stroke="none"/><g fill="none" stroke-linecap="round" stroke-linejoin="round" stroke="#c08a24" stroke-width="2.4"><path d="M105.0,110.0 L113.0,110.0 M97.7,127.7 L103.3,133.3 M80.0,135.0 L80.0,143.0 M62.3,127.7 L56.7,133.3 M55.0,110.0 L47.0,110.0 M62.3,92.3 L56.7,86.7 M80.0,85.0 L80.0,77.0 M97.7,92.3 L103.3,86.7"/></g><g fill="none" stroke-linecap="round" stroke-linejoin="round" stroke="#7a8a5a" stroke-width="2.8"><path d="M80,700 C70,600 90,520 78,440 C70,370 85,320 80,260"/></g><g fill="none" stroke-linecap="round" stroke-linejoin="round" stroke="#8a9a6a" stroke-width="2"><path d="M78,600 q18,-10 15,-32 q-6,24 -15,32 z"/><path d="M80,600 q-18,-10 -15,-32 q6,24 15,32 z"/><path d="M80,500 q-18,-10 -15,-32 q6,24 15,32 z"/><path d="M78,500 q18,-10 15,-32 q-6,24 -15,32 z"/><path d="M78,400 q18,-10 15,-32 q-6,24 -15,32 z"/><path d="M80,400 q-18,-10 -15,-32 q6,24 15,32 z"/><path d="M80,320 q-18,-10 -15,-32 q6,24 15,32 z"/></g><g><circle cx="58" cy="540" r="8" fill="none" stroke-linecap="round" stroke-linejoin="round" stroke="#d98aa5" stroke-width="2"/><circle cx="102" cy="450" r="8" fill="none" stroke-linecap="round" stroke-linejoin="round" stroke="#d98aa5" stroke-width="2"/><circle cx="60" cy="360" r="7" fill="none" stroke-linecap="round" stroke-linejoin="round" stroke="#d98aa5" stroke-width="2"/><circle cx="100" cy="560" r="2.2" fill="#a08fa9" stroke="none"/><circle cx="62" cy="470" r="2.2" fill="#a08fa9" stroke="none"/><circle cx="96" cy="380" r="2.2" fill="#a08fa9" stroke="none"/><circle cx="70" cy="290" r="2.2" fill="#a08fa9" stroke="none"/></g></svg>