<svg xmlns="http://www.w3.org/2000/svg" viewBox="0 0 96 96" role="img" aria-labelledby="t d"><title id="t">Kelp corner</title><desc id="d">A book-plate corner with kelp and bubbles.</desc><g fill="none" stroke="currentColor" stroke-linecap="round"><path d="M10,86 C10,48 40,18 86,10" stroke-width="2.4"/><path d="M22,86 C22,58 46,32 86,24" stroke-width="1.2" stroke-opacity=".6"/></g><g fill="currentColor"><circle cx="86" cy="10" r="3.2"/><circle cx="10" cy="86" r="3.2"/></g><g fill="currentColor"><path d="M0,0 C5,-6 14,-5.1 20,0 C14,5.1 5,6 0,0Z" transform="translate(30,60) rotate(70)"/><path d="M0,0 C5,-6 14,-5.1 20,0 C14,5.1 5,6 0,0Z" transform="translate(60,30) rotate(20)"/><circle cx="40" cy="40" r="5"/><circle cx="54" cy="50" r="3"/><circle cx="30" cy="26" r="3"/></g></svg>
