<svg xmlns="http://www.w3.org/2000/svg" viewBox="0 0 96 96" role="img" aria-labelledby="t d"><title id="t">Oak leaf corner</title><desc id="d">A book-plate corner with oak leaves and an acorn.</desc><g fill="none" stroke="currentColor" stroke-linecap="round"><path d="M10,86 C10,48 40,18 86,10" stroke-width="2.4"/><path d="M22,86 C22,58 46,32 86,24" stroke-width="1.2" stroke-opacity=".6"/></g><g transform="translate(14,66) rotate(-62)" fill-opacity=".9"><ellipse cx="5.3" cy="-4.1" rx="3.7" ry="3.5" transform="rotate(12 5.3 -4.1)" fill="currentColor"/><ellipse cx="5.3" cy="4.1" rx="3.7" ry="3.5" transform="rotate(-12 5.3 4.1)" fill="currentColor"/><ellipse cx="10.1" cy="-5.3" rx="4.7" ry="4.5" transform="rotate(12 10.1 -5.3)" fill="currentColor"/><ellipse cx="10.1" cy="5.3" rx="4.7" ry="4.5" transform="rotate(-12 10.1 5.3)" fill="currentColor"/><ellipse cx="14.9" cy="-4.3" rx="3.7" ry="3.7" transform="rotate(12 14.9 -4.3)" fill="currentColor"/><ellipse cx="14.9" cy="4.3" rx="3.7" ry="3.7" transform="rotate(-12 14.9 4.3)" fill="currentColor"/><ellipse cx="19.2" cy="-2.6" rx="2.8" ry="2.3" transform="rotate(12 19.2 -2.6)" fill="currentColor"/><ellipse cx="19.2" cy="2.6" rx="2.8" ry="2.3" transform="rotate(-12 19.2 2.6)" fill="currentColor"/><ellipse cx="12" cy="0" rx="12" ry="3.1" fill="currentColor"/><circle cx="23.5" cy="0" r="1.4" fill="currentColor"/><path d="M-2.9,0 L2.9,0" stroke="currentColor" stroke-width="1.2" stroke-linecap="round"/></g><g transform="translate(66,14) rotate(28)" fill-opacity=".9"><ellipse cx="5.3" cy="-4.1" rx="3.7" ry="3.5" transform="rotate(12 5.3 -4.1)" fill="currentColor"/><ellipse cx="5.3" cy="4.1" rx="3.7" ry="3.5" transform="rotate(-12 5.3 4.1)" fill="currentColor"/><ellipse cx="10.1" cy="-5.3" rx="4.7" ry="4.5" transform="rotate(12 10.1 -5.3)" fill="currentColor"/><ellipse cx="10.1" cy="5.3" rx="4.7" ry="4.5" transform="rotate(-12 10.1 5.3)" fill="currentColor"/><ellipse cx="14.9" cy="-4.3" rx="3.7" ry="3.7" transform="rotate(12 14.9 -4.3)" fill="currentColor"/><ellipse cx="14.9" cy="4.3" rx="3.7" ry="3.7" transform="rotate(-12 14.9 4.3)" fill="currentColor"/><ellipse cx="19.2" cy="-2.6" rx="2.8" ry="2.3" transform="rotate(12 19.2 -2.6)" fill="currentColor"/><ellipse cx="19.2" cy="2.6" rx="2.8" ry="2.3" transform="rotate(-12 19.2 2.6)" fill="currentColor"/><ellipse cx="12" cy="0" rx="12" ry="3.1" fill="currentColor"/><circle cx="23.5" cy="0" r="1.4" fill="currentColor"/><path d="M-2.9,0 L2.9,0" stroke="currentColor" stroke-width="1.2" stroke-linecap="round"/></g><g transform="translate(36,36) rotate(-45)"><ellipse cx="0" cy="3.1" rx="5.6" ry="7.6" fill="currentColor"/><path d="M-7.6,-1.6 C-7.6,-8.5 7.6,-8.5 7.6,-1.6 C3.6,-0.2 -3.6,-0.2 -7.6,-1.6Z" fill="currentColor"/><path d="M0,-8.5 L0,-12.2" stroke="currentColor" stroke-width="1.4" stroke-linecap="round"/></g><g fill="currentColor"><circle cx="86" cy="10" r="3"/><circle cx="10" cy="86" r="3"/></g></svg>
