<svg xmlns="http://www.w3.org/2000/svg" viewBox="0 0 96 96" role="img" aria-labelledby="t d"><title id="t">Gilded flame corner</title><desc id="d">A book-plate corner with gilded scrolls and a small flame.</desc><g fill="none" stroke="currentColor" stroke-linecap="round"><path d="M10,86 C10,48 40,18 86,10" stroke-width="2.4"/><path d="M22,86 C22,58 46,32 86,24" stroke-width="1.2" stroke-opacity=".6"/><path d="M30,60 C20,50 24,34 38,34 C46,34 48,44 42,48" stroke-width="1.6"/></g><g fill="currentColor"><path d="M0,0 C-6.6,-2.2 -6,-9.9 -0.8,-18 C0.4,-12.2 6.6,-9.4 5.6,-4.7 C4.9,-1.4 2.1,0 0,0Z" transform="translate(40,28)"/><circle cx="86" cy="10" r="3"/><circle cx="10" cy="86" r="3"/><path d="M0,-5 Q0,0 5,0 Q0,0 0,5 Q0,0 -5,0 Q0,0 0,-5Z" transform="translate(60,52)" fill-opacity=".8"/></g></svg>
